<svg xmlns="http://www.w3.org/2000/svg">
    <symbol id="minus" width="20" height="2" viewBox="0 0 20 2">
        <path fill-rule="evenodd" clip-rule="evenodd" d="M20 2L0 2L-8.74228e-08 0L20 -8.74228e-07L20 2Z" fill="white"/>
    </symbol>

    <symbol id="plus"  viewBox="0 0 20 20">
        <path  d="M10 0V20" stroke="white" stroke-width="2"/>
        <path  d="M0 10L20 10" stroke="white" stroke-width="2"/>
    </symbol>

    <symbol viewBox="0 0 21.5 21" id="src-1">
        <g clip-path="url(#clip0_5_3612)">
            <path d="M3.5 5V19C3.5 20.1 4.39 21 5.5 21H19.5C20.6 21 21.5 20.1 21.5 19V5C21.5 3.9 20.6 3 19.5 3H5.5C4.39 3 3.5 3.9 3.5 5ZM15.5 9C15.5 10.66 14.16 12 12.5 12C10.84 12 9.5 10.66 9.5 9C9.5 7.34 10.84 6 12.5 6C14.16 6 15.5 7.34 15.5 9ZM6.5 17C6.5 15 10.5 13.9 12.5 13.9C14.5 13.9 18.5 15 18.5 17V18H6.5V17Z"/>
        </g>
        <defs>
            <clipPath id="clip0_5_3612">
                <rect width="24" height="24" fill="white" transform="translate(0.5)"/>
            </clipPath>
        </defs>
    </symbol>
    <symbol viewBox="0 0 20.5 22" id="src-2">
        <g clip-path="url(#clip0_5_3598)">
            <path d="M18.5 8H17.5V6C17.5 3.24 15.26 1 12.5 1C9.74 1 7.5 3.24 7.5 6V8H6.5C5.4 8 4.5 8.9 4.5 10V20C4.5 21.1 5.4 22 6.5 22H18.5C19.6 22 20.5 21.1 20.5 20V10C20.5 8.9 19.6 8 18.5 8ZM12.5 17C11.4 17 10.5 16.1 10.5 15C10.5 13.9 11.4 13 12.5 13C13.6 13 14.5 13.9 14.5 15C14.5 16.1 13.6 17 12.5 17ZM15.6 8H9.4V6C9.4 4.29 10.79 2.9 12.5 2.9C14.21 2.9 15.6 4.29 15.6 6V8Z"/>
        </g>
        <defs>
            <clipPath id="clip0_5_3598">
                <rect width="24" height="24" transform="translate(0.5)"/>
            </clipPath>
        </defs>
    </symbol>
    <symbol viewBox="0 0 22.5 20" id="src-3">
        <g clip-path="url(#clip0_5_3625)">
            <path d="M20.5 4H4.5C3.4 4 2.51 4.9 2.51 6L2.5 18C2.5 19.1 3.4 20 4.5 20H20.5C21.6 20 22.5 19.1 22.5 18V6C22.5 4.9 21.6 4 20.5 4ZM20.5 8L12.5 13L4.5 8V6L12.5 11L20.5 6V8Z"/>
        </g>
        <defs>
            <clipPath id="clip0_5_3625">
                <rect width="24" height="24" fill="white" transform="translate(0.5)"/>
            </clipPath>
        </defs>
    </symbol>
    <symbol width="18" height="18" viewBox="0 0 18 18" id="exit">
        <g clip-path="url(#clip0_5_2678)">
            <path d="M11.2788 13.0708H12.6844V15.8818C12.6844 17.0443 11.7386 17.99 10.5761 17.99H2.10814C0.945786 17.99 0 17.0443 0 15.8818V2.10814C0 0.945786 0.945786 0 2.10814 0H10.5761C11.7386 0 12.6844 0.945786 12.6844 2.10814V4.91913H11.2788V2.10814C11.2788 1.72073 10.9637 1.40543 10.5761 1.40543H2.10814C1.72073 1.40543 1.40543 1.72073 1.40543 2.10814V15.8818C1.40543 16.2692 1.72073 16.5845 2.10814 16.5845H10.5761C10.9637 16.5845 11.2788 16.2692 11.2788 15.8818V13.0708ZM14.6872 5.68213L13.6934 6.67598L15.3096 8.29234H6.21922V9.69777H15.3096L13.6934 11.314L14.6872 12.3078L18 8.99506L14.6872 5.68213Z"
                  fill="#BDBDBD"/>
        </g>
        <defs>
            <clipPath id="clip0_5_2678">
                <rect width="18" height="18" fill="white"/>
            </clipPath>
        </defs>
    </symbol>
    <symbol id="home" viewBox="0 0 44 44">
        <path fill-rule="evenodd" clip-rule="evenodd"
              d="M9 3C5.68629 3 3 5.68629 3 9V35C3 38.3137 5.68629 41 9 41H35C38.3137 41 41 38.3137 41 35V9C41 5.68629 38.3137 3 35 3H9ZM18.9333 24.3594V32.5555H12.1V21.6274H8L21.6667 9.33325L35.3333 21.6274H31.2333V32.5555H24.4V24.3594H18.9333Z"
        />
    </symbol>
    <symbol id="statistics" viewBox="0 0 44 44">
        <path fill-rule="evenodd" clip-rule="evenodd"
              d="M9 3C5.68629 3 3 5.68629 3 9V35C3 38.3137 5.68629 41 9 41H35C38.3137 41 41 38.3137 41 35V9C41 5.68629 38.3137 3 35 3H9ZM32.5 19.5555C33.7833 19.5555 34.8333 18.4555 34.8333 17.1111C34.8333 15.7666 33.7833 14.6666 32.5 14.6666C31.2166 14.6666 30.1666 15.7666 30.1666 17.1111C30.1666 17.3311 30.19 17.5389 30.2483 17.7344L26.1066 22.0855C25.92 22.0244 25.71 22 25.5 22C25.29 22 25.08 22.0244 24.8933 22.0855L21.9183 18.9689C21.9766 18.7733 22 18.5533 22 18.3333C22 16.9889 20.95 15.8889 19.6666 15.8889C18.3833 15.8889 17.3333 16.9889 17.3333 18.3333C17.3333 18.5533 17.3566 18.7733 17.415 18.9689L12.095 24.53C11.9083 24.4689 11.71 24.4444 11.5 24.4444C10.2166 24.4444 9.16664 25.5444 9.16664 26.8889C9.16664 28.2333 10.2166 29.3333 11.5 29.3333C12.7833 29.3333 13.8333 28.2333 13.8333 26.8889C13.8333 26.6689 13.81 26.4611 13.7516 26.2655L19.06 20.6922C19.2466 20.7533 19.4566 20.7778 19.6666 20.7778C19.8766 20.7778 20.0866 20.7533 20.2733 20.6922L23.2483 23.8089C23.19 24.0044 23.1666 24.2244 23.1666 24.4444C23.1666 25.7889 24.2166 26.8889 25.5 26.8889C26.7833 26.8889 27.8333 25.7889 27.8333 24.4444C27.8333 24.2244 27.81 24.0044 27.7516 23.8089L31.905 19.47C32.0916 19.5311 32.29 19.5555 32.5 19.5555Z"
        />
    </symbol>
    <symbol id="currency" viewBox="0 0 44 44">
        <path fill-rule="evenodd" clip-rule="evenodd"
              d="M9 3C5.68629 3 3 5.68629 3 9V35C3 38.3137 5.68629 41 9 41H35C38.3137 41 41 38.3137 41 35V9C41 5.68629 38.3137 3 35 3H9ZM18.7523 18.5989C18.7523 19.7809 19.6607 20.5399 22.4852 21.2741C25.3096 22.0082 28.3332 23.2151 28.3332 26.7489C28.3332 29.2996 26.4046 30.7056 23.9783 31.166V33.8412H20.2455V31.1411C17.8565 30.631 15.8159 29.1005 15.6666 26.3756H18.4039C18.5408 27.8438 19.5487 28.9885 22.1119 28.9885C24.8617 28.9885 25.4714 27.6198 25.4714 26.7613C25.4714 25.6041 24.8493 24.5092 21.7386 23.7626C18.2671 22.9289 15.8905 21.498 15.8905 18.6238C15.8905 16.2223 17.8316 14.6546 20.2455 14.132V11.4443H23.9783V14.1693C26.5788 14.8039 27.8853 16.7698 27.9724 18.91H25.2225C25.1479 17.3546 24.3267 16.297 22.1119 16.297C20.0091 16.297 18.7523 17.2426 18.7523 18.5989Z"/>
    </symbol>


</svg>